<?xml version="1.0" encoding="UTF-8"?><svg id="Layer_1" xmlns="http://www.w3.org/2000/svg" width="175.8" height="213.2" viewBox="0 0 175.8 213.2"><path d="m175.8,75.7c-.3-14.6-1.9-29-6.2-43.1-1.2-4.1-3.1-8-4.7-12-.2-.6-.9-1-1.3-1.5-.1,0-.3.2-.4.2,0,.4.2.9.2,1.3.9,5,2,10,2.5,15,1.4,14.3,1.1,28.7,0,43-.1,1.6-.8,4.1-1.9,4.5-1.3.5-3.3-.7-4.9-1.4-1.4-.7-1.6-1.8-.5-3.1,1.5-1.6,3-3.2,4.2-5,1.9-2.6,1.8-5.7,0-8.3-1.8-2.5-3.6-4.9-5.3-7.4-1.8-2.5-3.6-5-5.2-7.7,0-.2-.2-.3-.3-.5-.6-1.2-1.4-2.4-2.5-3.2-.8-.6-1.5-1.2-2.2-1.9-.6-.6-1.3-1.2-2.1-1.6-.7-.3-1.3-.8-2-1.4-2.8-2.7-5.6-5.4-8.5-7.9-2.6-2.2-5.4-4.3-8.4-6-2.8-1.5-5.4-.5-7.4,2-.8.9-1.5,1.9-2.4,2.7-.5.4-1.2.5-1.9.8,0-.6-.3-1.3-.2-1.9.4-3.1,2.4-5.4,4.4-7.6,2.1-2.3,3.5-4.8,2.5-7.9-1.8-5.7-5.6-10.1-10.2-13.7-.3-.2-.8-.3-1.2-.5C102.8-.1,95.3,0,87.9,0c-5.6,0-11,1.5-16.7.6-1.2-.2-2.9.6-3.7,1.5-1.6,1.8-2.7,3.9-3.9,6-1.1,2.1-1.9,4.3-3.1,6.3-2.2,3.9-1.4,8.7,2.1,11.4.9.7,1.6.9,1.9-.6.6-2.7,2.6-3.9,5.1-4.2,4.3-.4,8.1.7,10.5,4.7,2.3,3.7,2.1,7.3-.5,10.9-.6.8-1.1,1.6-1.7,2.4-2.5,3.4-3.5,3.6-6.6.5-4.2-4.2-8.3-8.5-12.5-12.7-3.1-3.2-6.9-4.6-11-2.7-2.5,1.1-4.6,3.1-6.7,4.9-3.6,3.3-7.1,6.8-10.6,10.2-.4.3-.7.6-1.1.8-1.6.7-2.9,2-3.8,3.5-.1.3-.3.5-.5.8-.5,1-.8,2-1,3.1-.2.9-.5,1.9-1,3-1.5,3.4-3.4,6.6-5.1,9.9-2.5,5.1-4.6,10.2-1.8,15.9,1,1.9-.4,3.4-3.2,4.5-2,.8-2.2-1-2.7-2.1-2-3.9-2.3-8.1-2.4-12.4,0-4.8.2-9.7,0-14.5-.3-8.6.5-16.9,2.9-25.2.6-2,1.2-4,1.8-6-.2,0-.3-.2-.5-.2-.4.5-1,.9-1.3,1.4-1.6,2.9-3.5,5.7-4.8,8.7-3.3,7.7-4.7,15.9-5.5,24.2-1,10-1.7,20.1-.1,30.1.9,6,2.4,11.8,6.1,16.8,1.1,1.5,1.3,1.4,2.4-.2.8-1.2,1.9-2.3,3-3.3.3-.3,1.2-.2,1.7,0,.2.1.3,1,.2,1.5-.3,1.6-.7,3.1-1,4.6-1.7,9-2.9,18,.3,26.9.3.8,1,1.4,1.5,2.1.6-.5,1.3-.9,1.8-1.5,1.3-1.6,2.5-3.3,4.8-3.6,2-.3,2.5.2,2.2,2.1-.3,2.2-.8,4.4-1.3,6.6-1.3,6.2-.3,12,3.6,17,2.6,3.4,7.2,5.8,11.4,3,2-1.4,4.5-1.5,6.8-.4,3.6,1.8,7.5,2.4,11.5,2.6,2,.1,2.3.6,1.8,2.6-2.2,8.6-9.7,12.2-17.7,8.4-2.3-1.1-4.6-2.4-7-3.5-.9-.4-1.8-.5-3.1-.8,1,3.4,2.8,5.6,5,7.5,7.1,6.1,15.2,7.5,24.4,5.1-.2,1.4-.5,2.6-1.2,3.6-.8,1.1-1.9,2-2.8,3-1.8,1.9-1.9,2.6-.1,4.5,3.5,3.5,7,7.1,10.8,10.2,4.9,3.9,10,7.4,15.2,10.9,1.6,1.1,3.5,1.6,5.3,2.3.2-.2.3-.4.5-.6-.4-.8-.6-1.8-1.2-2.4-2.7-2.6-3.9-5.9-5-9.3-1.2-3.6-2.3-7.3-3.7-10.8-.4-1.1-1.4-2.1-2.4-2.7-2.5-1.6-4.2-4.1-3.8-6.5,1.3,0,2.6.1,3.9,0,1.3-.2,2.6-.7,3.8-1,3.6-1,5.2,0,6.4,3.6.9,2.9,2.1,5.8,3.3,8.6.8,1.8,1.8,3.6,2.7,5.4.3,0,.3,0,.6,0,.5-1.3,1.1-2.6,1.5-3.9,1.3-3.9,2.4-7.9,3.8-11.8.3-.9,1.5-2,2.4-2,3.3-.1,6.5,0,9.8.3.5,0,1.4,1.1,1.3,1.3-.8,1.8-1.3,4.2-2.7,5.2-2.4,1.8-3.6,3.7-3.8,6.6-.1,1.8-.4,3.7-1.2,5.2-1.6,3.4-3.6,6.6-5.3,9.9-.8,1.6-1.5,3.2-2.3,4.8.3.3.3.3.5.6,1.1-.4,2.2-.7,3.1-1.3,4.9-3.3,9.8-6.7,14.6-10.2,3.6-2.6,7.2-5.4,10.7-8.1,2.8-2.2,3-3.9,1.3-7-.8-1.3-1.7-2.5-2.4-3.9-.5-.9-.6-2-.9-3.1.3-.2.3-.2.7-.5,5.3,3.7,10.9,4,16.6,1.5,6.8-2.9,12.8-8.5,12-12-1,.3-1.9.5-2.9.8-6,1.8-12.1,2.1-18,0-4.7-1.7-8.3-4.7-9.5-9.9-.4-1.6.1-2.3,1.8-2.2,3.7,0,7.4,0,11.1,0,1.8,0,3.1.8,4.5,2,1.3,1.2,2.9,2.3,4.6,2.8,4.3,1.2,9-.9,11.8-5.2,4-6.4,4.5-13.3,2.7-20.5-.3-1.3-.8-2.5-1-3.9-.2-1.6.5-2.3,2-1.6,1.9.9,3.7,2.2,5.5,3.4.9.6,1.8,1.3,2.7,2,.3-.4.4-.6.5-.7,0-.7.2-1.3.1-2-.9-6.4-1.9-12.8-2.7-19.2-.5-3.6-.7-7.2-.8-10.8,0-1.6.8-3.4,2.5-3.6.9-.1,2.1,1.2,3,2.1.9.8,1.5,1.9,2.3,2.9.3,0,.3,0,.6-.1.5-1.8,1.2-3.5,1.6-5.3,1.9-7.9,2.1-15.9,1.9-23.9ZM110.3,12.9c-.4,2.9-2.3,2.5-4.2,2-5.6-1.4-11.1-2.8-16.7-4.2,0-.3-.1-.5-.2-.8,1.5-.6,3-1.5,4.5-1.7,4.4-.6,8.9-1.1,13.4-1.2,2.6,0,3.7,2.4,3.2,5.9Z" stroke-width="0"/></svg>